REM DIRINDEX 1\3,1\4,1\5,1\6,1\2\7,1\2\8,1\2\9,1\10
REM DIRNAME cjc056,folder01,folder02,folder03,folder04,folder05,folder06,folder07,folder08,folder09
TITLE ""
FILE "2-31 Level 5-793-803.mp3" MP3
  TRACK 01 AUDIO
    TITLE "0:"
    INDEX 01 00:00:00
  TRACK 02 AUDIO
    TITLE "7:cjc056_2719"
    INDEX 01 00:00:07
  TRACK 03 AUDIO
    TITLE "0:"
    INDEX 01 00:01:13
  TRACK 04 AUDIO
    TITLE "8:cjc056_2720"
    INDEX 01 00:01:24
  TRACK 05 AUDIO
    TITLE "0:"
    INDEX 01 00:02:14
  TRACK 06 AUDIO
    TITLE "9:cjc056_2721"
    INDEX 01 00:02:24
  TRACK 07 AUDIO
    TITLE "0:"
    INDEX 01 00:05:36
  TRACK 08 AUDIO
    TITLE "7:cjc056_2722"
    INDEX 01 00:06:12
  TRACK 09 AUDIO
    TITLE "0:"
    INDEX 01 00:07:05
  TRACK 10 AUDIO
    TITLE "8:cjc056_2723"
    INDEX 01 00:07:19
  TRACK 11 AUDIO
    TITLE "0:"
    INDEX 01 00:08:32
  TRACK 12 AUDIO
    TITLE "9:cjc056_2724"
    INDEX 01 00:08:46
  TRACK 13 AUDIO
    TITLE "0:"
    INDEX 01 00:10:39
  TRACK 14 AUDIO
    TITLE "7:cjc056_2725"
    INDEX 01 00:11:15
  TRACK 15 AUDIO
    TITLE "0:"
    INDEX 01 00:12:28
  TRACK 16 AUDIO
    TITLE "8:cjc056_2726"
    INDEX 01 00:12:38
  TRACK 17 AUDIO
    TITLE "0:"
    INDEX 01 00:13:32
  TRACK 18 AUDIO
    TITLE "9:cjc056_2727"
    INDEX 01 00:13:43
  TRACK 19 AUDIO
    TITLE "0:"
    INDEX 01 00:16:30
  TRACK 20 AUDIO
    TITLE "7:cjc056_2728"
    INDEX 01 00:17:04
  TRACK 21 AUDIO
    TITLE "0:"
    INDEX 01 00:18:05
  TRACK 22 AUDIO
    TITLE "8:cjc056_2729"
    INDEX 01 00:18:15
  TRACK 23 AUDIO
    TITLE "0:"
    INDEX 01 00:19:18
  TRACK 24 AUDIO
    TITLE "9:cjc056_2730"
    INDEX 01 00:19:26
  TRACK 25 AUDIO
    TITLE "0:"
    INDEX 01 00:21:35
  TRACK 26 AUDIO
    TITLE "7:cjc056_2731"
    INDEX 01 00:22:09
  TRACK 27 AUDIO
    TITLE "0:"
    INDEX 01 00:23:08
  TRACK 28 AUDIO
    TITLE "8:cjc056_2732"
    INDEX 01 00:23:24
  TRACK 29 AUDIO
    TITLE "0:"
    INDEX 01 00:24:39
  TRACK 30 AUDIO
    TITLE "9:cjc056_2733"
    INDEX 01 00:24:51
  TRACK 31 AUDIO
    TITLE "0:"
    INDEX 01 00:28:31
  TRACK 32 AUDIO
    TITLE "7:cjc056_2734"
    INDEX 01 00:29:09
  TRACK 33 AUDIO
    TITLE "0:"
    INDEX 01 00:30:24
  TRACK 34 AUDIO
    TITLE "8:cjc056_2735"
    INDEX 01 00:30:34
  TRACK 35 AUDIO
    TITLE "0:"
    INDEX 01 00:31:26
  TRACK 36 AUDIO
    TITLE "9:cjc056_2736"
    INDEX 01 00:31:37
  TRACK 37 AUDIO
    TITLE "0:"
    INDEX 01 00:34:04
  TRACK 38 AUDIO
    TITLE "7:cjc056_2737"
    INDEX 01 00:34:49
  TRACK 39 AUDIO
    TITLE "0:"
    INDEX 01 00:35:63
  TRACK 40 AUDIO
    TITLE "8:cjc056_2738"
    INDEX 01 00:36:01
  TRACK 41 AUDIO
    TITLE "0:"
    INDEX 01 00:37:26
  TRACK 42 AUDIO
    TITLE "9:cjc056_2739"
    INDEX 01 00:37:38
  TRACK 43 AUDIO
    TITLE "0:"
    INDEX 01 00:39:41
  TRACK 44 AUDIO
    TITLE "7:cjc056_2740"
    INDEX 01 00:40:19
  TRACK 45 AUDIO
    TITLE "0:"
    INDEX 01 00:41:32
  TRACK 46 AUDIO
    TITLE "8:cjc056_2741"
    INDEX 01 00:41:45
  TRACK 47 AUDIO
    TITLE "0:"
    INDEX 01 00:43:01
  TRACK 48 AUDIO
    TITLE "9:cjc056_2742"
    INDEX 01 00:43:09
  TRACK 49 AUDIO
    TITLE "0:"
    INDEX 01 00:46:06
  TRACK 50 AUDIO
    TITLE "7:cjc056_2743"
    INDEX 01 00:46:56
  TRACK 51 AUDIO
    TITLE "0:"
    INDEX 01 00:47:72
  TRACK 52 AUDIO
    TITLE "8:cjc056_2744"
    INDEX 01 00:48:10
  TRACK 53 AUDIO
    TITLE "0:"
    INDEX 01 00:49:45
  TRACK 54 AUDIO
    TITLE "9:cjc056_2745"
    INDEX 01 00:49:59
  TRACK 55 AUDIO
    TITLE "0:"
    INDEX 01 00:52:55
  TRACK 56 AUDIO
    TITLE "7:cjc056_2746"
    INDEX 01 00:53:31
  TRACK 57 AUDIO
    TITLE "0:"
    INDEX 01 00:54:34
  TRACK 58 AUDIO
    TITLE "8:cjc056_2747"
    INDEX 01 00:54:48
  TRACK 59 AUDIO
    TITLE "0:"
    INDEX 01 00:56:00
  TRACK 60 AUDIO
    TITLE "9:cjc056_2748"
    INDEX 01 00:56:14
  TRACK 61 AUDIO
    TITLE "0:"
    INDEX 01 00:59:18
  TRACK 62 AUDIO
    TITLE "7:cjc056_2749"
    INDEX 01 00:59:69
  TRACK 63 AUDIO
    TITLE "0:"
    INDEX 01 01:01:07
  TRACK 64 AUDIO
    TITLE "8:cjc056_2750"
    INDEX 01 01:01:21
  TRACK 65 AUDIO
    TITLE "0:"
    INDEX 01 01:02:32
  TRACK 66 AUDIO
    TITLE "9:cjc056_2751"
    INDEX 01 01:02:38
  TRACK 67 AUDIO
    TITLE "0:"
    INDEX 01 01:04:60
